# MagicaVoxel @ Ephtracy

# group
o 

# material
mtllib Meteor_roots_Gun_Model.mtl
usemtl palette

# normals
vn -1 0 0
vn 1 0 0
vn 0 0 1
vn 0 0 -1
vn 0 -1 0
vn 0 1 0

# texcoords
vt 0.568359 0.5
vt 0.576172 0.5
vt 0.876953 0.5
vt 0.978516 0.5
vt 0.982422 0.5

# verts
v -0.3 0.6 -0.7
v -0.3 0.6 -1.2
v -0.3 1 -0.7
v -0.3 1 -1.2
v -0.2 0.6 -0.6
v -0.2 0.6 -0.7
v -0.2 1 -0.6
v -0.2 1 -0.7
v -0.1 0.7 -0.2
v -0.1 0.7 -0.6
v -0.1 0.9 -0.2
v -0.1 0.9 -0.6
v 2.98023e-08 0.7 -0.1
v 2.98023e-08 0.7 -0.2
v 2.98023e-08 0.8 1
v 2.98023e-08 0.8 -0.1
v 2.98023e-08 0.9 1
v 2.98023e-08 0.9 0.6
v 2.98023e-08 0.9 0.4
v 2.98023e-08 0.9 -0.2
v 2.98023e-08 1 0.5
v 2.98023e-08 1 0.4
v 2.98023e-08 1.1 0.6
v 2.98023e-08 1.1 0.5
v 0.3 0.6 -0.6
v 0.3 0.6 -0.7
v 0.3 0.7 -0.6
v 0.3 0.7 -0.7
v 0.3 0.9 -0.6
v 0.3 0.9 -0.7
v 0.3 1 -0.6
v 0.3 1 -0.7
v -0.1 0.6 -0.6
v -0.1 0.6 -0.7
v -0.1 0.7 -0.6
v -0.1 0.7 -0.7
v -0.1 0.9 -0.6
v -0.1 0.9 -0.7
v -0.1 1 -0.6
v -0.1 1 -0.7
v 0.2 0.7 -0.1
v 0.2 0.7 -0.2
v 0.2 0.8 1
v 0.2 0.8 -0.1
v 0.2 0.9 1
v 0.2 0.9 0.6
v 0.2 0.9 0.4
v 0.2 0.9 -0.2
v 0.2 1 0.5
v 0.2 1 0.4
v 0.2 1.1 0.6
v 0.2 1.1 0.5
v 0.3 0.7 -0.2
v 0.3 0.7 -0.6
v 0.3 0.9 -0.2
v 0.3 0.9 -0.6
v 0.4 0.6 -0.6
v 0.4 0.6 -0.7
v 0.4 1 -0.6
v 0.4 1 -0.7
v 0.5 0.6 -0.7
v 0.5 0.6 -1.2
v 0.5 1 -0.7
v 0.5 1 -1.2
v 2.98023e-08 0.8 1
v 2.98023e-08 0.9 1
v 0.2 0.8 1
v 0.2 0.9 1
v 2.98023e-08 0.9 0.6
v 2.98023e-08 1.1 0.6
v 0.2 0.9 0.6
v 0.2 1.1 0.6
v 2.98023e-08 0.7 -0.1
v 2.98023e-08 0.8 -0.1
v 0.2 0.7 -0.1
v 0.2 0.8 -0.1
v -0.1 0.7 -0.2
v -0.1 0.9 -0.2
v 2.98023e-08 0.7 -0.2
v 2.98023e-08 0.9 -0.2
v 0.2 0.7 -0.2
v 0.2 0.9 -0.2
v 0.3 0.7 -0.2
v 0.3 0.9 -0.2
v -0.2 0.6 -0.6
v -0.2 1 -0.6
v -0.1 0.6 -0.6
v -0.1 0.7 -0.6
v -0.1 0.9 -0.6
v -0.1 1 -0.6
v 0.3 0.6 -0.6
v 0.3 0.7 -0.6
v 0.3 0.9 -0.6
v 0.3 1 -0.6
v 0.4 0.6 -0.6
v 0.4 1 -0.6
v -0.3 0.6 -0.7
v -0.3 1 -0.7
v -0.2 0.6 -0.7
v -0.2 1 -0.7
v -0.1 0.6 -0.7
v -0.1 0.7 -0.7
v -0.1 0.9 -0.7
v -0.1 1 -0.7
v 0.3 0.6 -0.7
v 0.3 0.7 -0.7
v 0.3 0.9 -0.7
v 0.3 1 -0.7
v 0.4 0.6 -0.7
v 0.4 1 -0.7
v 0.5 0.6 -0.7
v 0.5 1 -0.7
v 2.98023e-08 1 0.5
v 2.98023e-08 1.1 0.5
v 0.2 1 0.5
v 0.2 1.1 0.5
v 2.98023e-08 0.9 0.4
v 2.98023e-08 1 0.4
v 0.2 0.9 0.4
v 0.2 1 0.4
v -0.3 0.6 -1.2
v -0.3 1 -1.2
v 0.5 0.6 -1.2
v 0.5 1 -1.2
v -0.2 0.6 -0.6
v -0.1 0.6 -0.6
v 0.3 0.6 -0.6
v 0.4 0.6 -0.6
v -0.3 0.6 -0.7
v -0.2 0.6 -0.7
v -0.1 0.6 -0.7
v 0.3 0.6 -0.7
v 0.4 0.6 -0.7
v 0.5 0.6 -0.7
v -0.3 0.6 -1.2
v 0.5 0.6 -1.2
v 2.98023e-08 0.7 -0.1
v 0.2 0.7 -0.1
v -0.1 0.7 -0.2
v 2.98023e-08 0.7 -0.2
v 0.2 0.7 -0.2
v 0.3 0.7 -0.2
v -0.1 0.7 -0.6
v 0.3 0.7 -0.6
v -0.1 0.7 -0.7
v 0.3 0.7 -0.7
v 2.98023e-08 0.8 1
v 0.2 0.8 1
v 2.98023e-08 0.8 -0.1
v 0.2 0.8 -0.1
v 2.98023e-08 0.9 1
v 0.2 0.9 1
v 2.98023e-08 0.9 0.6
v 0.2 0.9 0.6
v 2.98023e-08 0.9 0.4
v 0.2 0.9 0.4
v -0.1 0.9 -0.2
v 2.98023e-08 0.9 -0.2
v 0.2 0.9 -0.2
v 0.3 0.9 -0.2
v -0.1 0.9 -0.6
v 0.3 0.9 -0.6
v -0.1 0.9 -0.7
v 0.3 0.9 -0.7
v 2.98023e-08 1 0.5
v 0.2 1 0.5
v 2.98023e-08 1 0.4
v 0.2 1 0.4
v -0.2 1 -0.6
v -0.1 1 -0.6
v 0.3 1 -0.6
v 0.4 1 -0.6
v -0.3 1 -0.7
v -0.2 1 -0.7
v -0.1 1 -0.7
v 0.3 1 -0.7
v 0.4 1 -0.7
v 0.5 1 -0.7
v -0.3 1 -1.2
v 0.5 1 -1.2
v 2.98023e-08 1.1 0.6
v 0.2 1.1 0.6
v 2.98023e-08 1.1 0.5
v 0.2 1.1 0.5

# faces
f 3/3/1 2/3/1 1/3/1
f 4/3/1 2/3/1 3/3/1
f 7/4/1 6/4/1 5/4/1
f 8/4/1 6/4/1 7/4/1
f 11/5/1 10/5/1 9/5/1
f 12/5/1 10/5/1 11/5/1
f 16/5/1 14/5/1 13/5/1
f 17/5/1 16/5/1 15/5/1
f 18/5/1 16/5/1 17/5/1
f 19/5/1 16/5/1 18/5/1
f 20/5/1 14/5/1 16/5/1
f 20/5/1 16/5/1 19/5/1
f 21/5/1 19/5/1 18/5/1
f 22/5/1 19/5/1 21/5/1
f 23/5/1 21/5/1 18/5/1
f 24/5/1 21/5/1 23/5/1
f 27/4/1 26/4/1 25/4/1
f 28/4/1 26/4/1 27/4/1
f 31/4/1 30/4/1 29/4/1
f 32/4/1 30/4/1 31/4/1
f 33/4/2 34/4/2 35/4/2
f 35/4/2 34/4/2 36/4/2
f 37/4/2 38/4/2 39/4/2
f 39/4/2 38/4/2 40/4/2
f 41/5/2 42/5/2 44/5/2
f 43/5/2 44/5/2 45/5/2
f 45/5/2 44/5/2 46/5/2
f 46/5/2 44/5/2 47/5/2
f 44/5/2 42/5/2 48/5/2
f 47/5/2 44/5/2 48/5/2
f 46/5/2 47/5/2 49/5/2
f 49/5/2 47/5/2 50/5/2
f 46/5/2 49/5/2 51/5/2
f 51/5/2 49/5/2 52/5/2
f 53/5/2 54/5/2 55/5/2
f 55/5/2 54/5/2 56/5/2
f 57/4/2 58/4/2 59/4/2
f 59/4/2 58/4/2 60/4/2
f 61/3/2 62/3/2 63/3/2
f 63/3/2 62/3/2 64/3/2
f 67/5/3 66/5/3 65/5/3
f 68/5/3 66/5/3 67/5/3
f 71/5/3 70/5/3 69/5/3
f 72/5/3 70/5/3 71/5/3
f 75/5/3 74/5/3 73/5/3
f 76/5/3 74/5/3 75/5/3
f 79/5/3 78/5/3 77/5/3
f 80/5/3 78/5/3 79/5/3
f 83/5/3 82/5/3 81/5/3
f 84/5/3 82/5/3 83/5/3
f 87/4/3 86/4/3 85/4/3
f 88/4/3 86/4/3 87/4/3
f 89/4/3 86/4/3 88/4/3
f 90/4/3 86/4/3 89/4/3
f 95/4/3 92/4/3 91/4/3
f 95/4/3 94/4/3 93/4/3
f 95/4/3 93/4/3 92/4/3
f 96/4/3 94/4/3 95/4/3
f 99/3/3 98/3/3 97/3/3
f 100/3/3 98/3/3 99/3/3
f 105/3/3 102/3/3 101/3/3
f 106/3/3 102/3/3 105/3/3
f 107/3/3 104/3/3 103/3/3
f 108/3/3 104/3/3 107/3/3
f 111/3/3 110/3/3 109/3/3
f 112/3/3 110/3/3 111/3/3
f 113/5/4 114/5/4 115/5/4
f 115/5/4 114/5/4 116/5/4
f 117/5/4 118/5/4 119/5/4
f 119/5/4 118/5/4 120/5/4
f 121/3/4 122/3/4 123/3/4
f 123/3/4 122/3/4 124/3/4
f 130/4/5 126/4/5 125/4/5
f 131/4/5 126/4/5 130/4/5
f 132/4/5 128/4/5 127/4/5
f 133/4/5 128/4/5 132/4/5
f 135/3/5 131/3/5 130/3/5
f 135/3/5 134/3/5 133/3/5
f 135/3/5 133/3/5 132/3/5
f 135/3/5 132/3/5 131/3/5
f 135/3/5 130/3/5 129/3/5
f 136/3/5 134/3/5 135/3/5
f 140/5/5 138/5/5 137/5/5
f 141/5/5 138/5/5 140/5/5
f 143/5/5 140/5/5 139/5/5
f 143/5/5 142/5/5 141/5/5
f 143/5/5 141/5/5 140/5/5
f 144/5/5 142/5/5 143/5/5
f 145/4/5 144/4/5 143/4/5
f 146/4/5 144/4/5 145/4/5
f 149/5/5 148/5/5 147/5/5
f 150/5/5 148/5/5 149/5/5
f 151/5/6 152/5/6 153/5/6
f 153/5/6 152/5/6 154/5/6
f 155/5/6 156/5/6 158/5/6
f 158/5/6 156/5/6 159/5/6
f 158/5/6 159/5/6 161/5/6
f 159/5/6 160/5/6 161/5/6
f 157/5/6 158/5/6 161/5/6
f 161/5/6 160/5/6 162/5/6
f 161/4/6 162/4/6 163/4/6
f 163/4/6 162/4/6 164/4/6
f 165/5/6 166/5/6 167/5/6
f 167/5/6 166/5/6 168/5/6
f 169/4/6 170/4/6 174/4/6
f 174/4/6 170/4/6 175/4/6
f 171/4/6 172/4/6 176/4/6
f 176/4/6 172/4/6 177/4/6
f 174/3/6 175/3/6 179/3/6
f 177/3/6 178/3/6 179/3/6
f 176/3/6 177/3/6 179/3/6
f 175/3/6 176/3/6 179/3/6
f 173/3/6 174/3/6 179/3/6
f 179/3/6 178/3/6 180/3/6
f 181/5/6 182/5/6 183/5/6
f 183/5/6 182/5/6 184/5/6
